# xmcd
#
# Track frame offsets: 
#        150
#        15969
#        32377
#        50903
#        66913
#        88673
#        100914
#        118106
#        135253
#        154879
#
# Disc length: 2307 seconds
#
# Revision: 0
# Processed by: cddbd v1.5.2PL0 Copyright (c) Steve Scherf et al.
# Submitted via: ExactAudioCopy v0.99pb4
#
DISCID=7a09010a
DTITLE=Susan Hickman - Susan Hickman
DYEAR=2009
DGENRE=country
TTITLE0=Wrapped Up In Me
TTITLE1=RED
TTITLE2=Hell Still Ain't Frozen Over
TTITLE3=Sunday Paper
TTITLE4=One Of Those Who Make It Up There
TTITLE5=You Just Missed This Train
TTITLE6=Friday At The Latest
TTITLE7=Wounded Heart
TTITLE8=Do Me A Miracle
TTITLE9=Whipping Post
EXTD=
EXTT0=
EXTT1=
EXTT2=
EXTT3=
EXTT4=
EXTT5=
EXTT6=
EXTT7=
EXTT8=
EXTT9=
PLAYORDER=
